<svg width="946" height="463" viewBox="0 0 946 463" fill="none" xmlns="http://www.w3.org/2000/svg">
<path d="M0 29C0 12.9837 12.9837 0 29 0H917C933.016 0 946 12.9837 946 29V434C946 450.016 933.016 463 917 463H29C12.9837 463 0 450.016 0 434V29Z" fill="#AAB8C2" fill-opacity="0.97"/>
<path d="M252.838 97.326C275.237 97.326 293.135 103.187 306.532 114.91C320.139 126.633 326.942 143.17 326.942 164.522C326.942 184.199 320.453 199.585 307.474 210.68C294.705 221.565 277.749 227.113 256.606 227.322L255.036 250.872H207.936L206.366 192.468H225.206C241.325 192.468 253.571 190.479 261.944 186.502C270.527 182.525 274.818 175.303 274.818 164.836C274.818 157.509 272.829 151.753 268.852 147.566C264.875 143.379 259.327 141.286 252.21 141.286C244.674 141.286 238.813 143.484 234.626 147.88C230.439 152.067 228.346 157.823 228.346 165.15H177.792C177.373 152.381 179.99 140.867 185.642 130.61C191.503 120.353 200.086 112.293 211.39 106.432C222.903 100.361 236.719 97.326 252.838 97.326ZM232.114 332.512C222.694 332.512 214.949 329.791 208.878 324.348C203.017 318.696 200.086 311.788 200.086 303.624C200.086 295.251 203.017 288.238 208.878 282.586C214.949 276.934 222.694 274.108 232.114 274.108C241.325 274.108 248.861 276.934 254.722 282.586C260.793 288.238 263.828 295.251 263.828 303.624C263.828 311.788 260.793 318.696 254.722 324.348C248.861 329.791 241.325 332.512 232.114 332.512ZM472.638 97.326C495.037 97.326 512.935 103.187 526.332 114.91C539.939 126.633 546.742 143.17 546.742 164.522C546.742 184.199 540.253 199.585 527.274 210.68C514.505 221.565 497.549 227.113 476.406 227.322L474.836 250.872H427.736L426.166 192.468H445.006C461.125 192.468 473.371 190.479 481.744 186.502C490.327 182.525 494.618 175.303 494.618 164.836C494.618 157.509 492.629 151.753 488.652 147.566C484.675 143.379 479.127 141.286 472.01 141.286C464.474 141.286 458.613 143.484 454.426 147.88C450.239 152.067 448.146 157.823 448.146 165.15H397.592C397.173 152.381 399.79 140.867 405.442 130.61C411.303 120.353 419.886 112.293 431.19 106.432C442.703 100.361 456.519 97.326 472.638 97.326ZM451.914 332.512C442.494 332.512 434.749 329.791 428.678 324.348C422.817 318.696 419.886 311.788 419.886 303.624C419.886 295.251 422.817 288.238 428.678 282.586C434.749 276.934 442.494 274.108 451.914 274.108C461.125 274.108 468.661 276.934 474.522 282.586C480.593 288.238 483.628 295.251 483.628 303.624C483.628 311.788 480.593 318.696 474.522 324.348C468.661 329.791 461.125 332.512 451.914 332.512ZM692.438 97.326C714.837 97.326 732.735 103.187 746.132 114.91C759.739 126.633 766.542 143.17 766.542 164.522C766.542 184.199 760.053 199.585 747.074 210.68C734.305 221.565 717.349 227.113 696.206 227.322L694.636 250.872H647.536L645.966 192.468H664.806C680.925 192.468 693.171 190.479 701.544 186.502C710.127 182.525 714.418 175.303 714.418 164.836C714.418 157.509 712.429 151.753 708.452 147.566C704.475 143.379 698.927 141.286 691.81 141.286C684.274 141.286 678.413 143.484 674.226 147.88C670.039 152.067 667.946 157.823 667.946 165.15H617.392C616.973 152.381 619.59 140.867 625.242 130.61C631.103 120.353 639.686 112.293 650.99 106.432C662.503 100.361 676.319 97.326 692.438 97.326ZM671.714 332.512C662.294 332.512 654.549 329.791 648.478 324.348C642.617 318.696 639.686 311.788 639.686 303.624C639.686 295.251 642.617 288.238 648.478 282.586C654.549 276.934 662.294 274.108 671.714 274.108C680.925 274.108 688.461 276.934 694.322 282.586C700.393 288.238 703.428 295.251 703.428 303.624C703.428 311.788 700.393 318.696 694.322 324.348C688.461 329.791 680.925 332.512 671.714 332.512Z" fill="#E1E8ED"/>
</svg>
