<svg width="382" height="382" viewBox="0 0 382 382" fill="none" xmlns="http://www.w3.org/2000/svg">
<path d="M191 7.62939e-05C140.344 7.56899e-05 91.7621 20.1232 55.9426 55.9427C20.1232 91.7621 4.42852e-06 140.344 0 191C-4.42852e-06 241.656 20.1231 290.238 55.9426 326.057C91.762 361.877 140.344 382 191 382L191 191L191 7.62939e-05Z" fill="#F5F8FA"/>
<path d="M191 382C241.656 382 290.238 361.877 326.057 326.057C361.877 290.238 382 241.656 382 191C382 140.344 361.877 91.7621 326.058 55.9426C290.238 20.1232 241.656 -4.01626e-06 191 -1.66977e-05L191 191L191 382Z" fill="#128C7E"/>
<path d="M190.5 276C213.176 276 234.923 266.992 250.958 250.958C266.992 234.923 276 213.176 276 190.5C276 167.824 266.992 146.077 250.958 130.042C234.923 114.008 213.176 105 190.5 105L190.5 190.5L190.5 276Z" fill="#075E54"/>
<path d="M191 152C180.657 152 170.737 156.109 163.423 163.423C156.109 170.737 152 180.657 152 191C152 201.343 156.109 211.263 163.423 218.577C170.737 225.891 180.657 230 191 230L191 191L191 152Z" fill="#003D36"/>
</svg>
