<svg width="191" height="187" viewBox="0 0 191 187" fill="none" xmlns="http://www.w3.org/2000/svg">
<path d="M107.089 28.9494C113.591 20.6347 126.935 25.363 126.752 35.9168L126.18 68.8742C126.098 73.566 129.002 77.793 133.411 79.4001L164.38 90.6885C174.297 94.3033 173.924 108.455 163.83 111.542L132.309 121.182C127.821 122.555 124.698 126.623 124.532 131.312L123.366 164.254C122.993 174.803 109.418 178.821 103.363 170.175L84.4546 143.175C81.7627 139.332 76.9288 137.619 72.4174 138.91L40.7277 147.981C30.5798 150.885 22.5634 139.217 28.9151 130.786L48.7502 104.46C51.5739 100.712 51.7092 95.5853 49.0869 91.6937L30.6676 64.358C24.7692 55.6044 33.3897 44.3745 43.3703 47.8102L74.5376 58.5391C78.9747 60.0665 83.8922 58.6109 86.7829 54.9144L107.089 28.9494Z" fill="#BD1E68" fill-opacity="0.32"/>
</svg>
